<svg width="1920" height="376" viewBox="0 0 1920 376" fill="none" xmlns="http://www.w3.org/2000/svg">
<g filter="url(#filter0_d_25_32)">
<ellipse cx="369.5" cy="220.5" rx="139.5" ry="133.5" fill="#DDE2E4"/>
<ellipse cx="618.5" cy="239.5" rx="139.5" ry="133.5" fill="#DDE2E4"/>
<ellipse cx="820.5" cy="195.5" rx="139.5" ry="133.5" fill="#DDE2E4"/>
<ellipse cx="989.5" cy="239.5" rx="139.5" ry="133.5" fill="#DDE2E4"/>
<ellipse cx="1187.5" cy="179.5" rx="139.5" ry="133.5" fill="#DDE2E4"/>
<ellipse cx="139.5" cy="220.5" rx="139.5" ry="133.5" fill="#DDE2E4"/>
<ellipse cx="1327.5" cy="170.5" rx="139.5" ry="133.5" fill="#DDE2E4"/>
<ellipse cx="1466.5" cy="239.5" rx="139.5" ry="133.5" fill="#DDE2E4"/>
<ellipse cx="1638.5" cy="220.5" rx="139.5" ry="133.5" fill="#DDE2E4"/>
<ellipse cx="1086.5" cy="163.5" rx="82.5" ry="76.5" fill="#DDE2E4"/>
<ellipse cx="682.5" cy="163.5" rx="82.5" ry="76.5" fill="#DDE2E4"/>
<ellipse cx="1488.5" cy="122.5" rx="82.5" ry="76.5" fill="#DDE2E4"/>
<ellipse cx="478.5" cy="199.5" rx="82.5" ry="76.5" fill="#DDE2E4"/>
<ellipse cx="245.5" cy="170.5" rx="82.5" ry="76.5" fill="#DDE2E4"/>
<ellipse cx="1847.5" cy="220.5" rx="139.5" ry="133.5" fill="#DDE2E4"/>
<ellipse cx="40.5" cy="182.5" rx="82.5" ry="76.5" fill="#DDE2E4"/>
<ellipse cx="1808.5" cy="170.5" rx="139.5" ry="133.5" fill="#DDE2E4"/>
</g>
<defs>
<filter id="filter0_d_25_32" x="-62" y="0" width="2069" height="376" filterUnits="userSpaceOnUse" color-interpolation-filters="sRGB">
<feFlood flood-opacity="0" result="BackgroundImageFix"/>
<feColorMatrix in="SourceAlpha" type="matrix" values="0 0 0 0 0 0 0 0 0 0 0 0 0 0 0 0 0 0 127 0" result="hardAlpha"/>
<feOffset dy="-17"/>
<feGaussianBlur stdDeviation="10"/>
<feComposite in2="hardAlpha" operator="out"/>
<feColorMatrix type="matrix" values="0 0 0 0 0.275677 0 0 0 0 0.352091 0 0 0 0 0.382656 0 0 0 0.25 0"/>
<feBlend mode="normal" in2="BackgroundImageFix" result="effect1_dropShadow_25_32"/>
<feBlend mode="normal" in="SourceGraphic" in2="effect1_dropShadow_25_32" result="shape"/>
</filter>
</defs>
</svg>
